<!DOCTYPE svg PUBLIC "-//W3C//DTD SVG 1.1//EN" "http://www.w3.org/Graphics/SVG/1.1/DTD/svg11.dtd">
<!-- Uploaded to: SVG Repo, www.svgrepo.com, Transformed by: SVG Repo Mixer Tools -->
<svg width="800px" height="800px" viewBox="-40 -40 480.00 480.00" xmlns="http://www.w3.org/2000/svg" fill="#000000">
<g id="SVGRepo_bgCarrier" stroke-width="0">
<path transform="translate(-40, -40), scale(15)" d="M16,26.31240944005549C18.377494584867843,26.35272716170469,20.684502417553393,25.265032421867293,22.35131132198154,23.56919808565578C23.908690968134003,21.984698583975725,23.730351038290276,19.55077976713626,24.63873450630156,17.523241972638186C26.066864218365602,14.33561574580385,30.26934591359678,11.718497649567244,29.141833576249667,8.412558847106997C28.057390775493072,5.232902700279226,23.542713825837897,4.7203081238606295,20.19155008632419,4.4838107853112135C17.49061271289406,4.293201029997507,15.460446399406738,6.664940976511467,12.819132363219888,7.260637993672653C9.449632166170918,8.020563238913013,5.190543828394283,5.873252733226531,2.8338285073755305,8.398507344536476C0.48825645375901994,10.91182178337773,0.9740473364929274,15.278485706743506,2.4299851580710587,18.392759745246384C3.726652825711089,21.16635240425179,7.18257393344429,21.813539949861536,9.826904857665388,23.356808313303134C11.858542492178964,24.542500337929617,13.648016531978268,26.27252433773359,16,26.31240944005549" fill="#ffffff" strokewidth="0"/>
</g>
<g id="SVGRepo_tracerCarrier" stroke-linecap="round" stroke-linejoin="round"/>
<g id="SVGRepo_iconCarrier"> <defs> <style>.cls-1{fill:#ff402f;}</style> </defs> <title/> <g id="xxx-word"> <path class="cls-1" d="M325,105H250a5,5,0,0,1-5-5V25a5,5,0,0,1,10,0V95h70a5,5,0,0,1,0,10Z"/> <path class="cls-1" d="M325,154.83a5,5,0,0,1-5-5V102.07L247.93,30H100A20,20,0,0,0,80,50v98.17a5,5,0,0,1-10,0V50a30,30,0,0,1,30-30H250a5,5,0,0,1,3.54,1.46l75,75A5,5,0,0,1,330,100v49.83A5,5,0,0,1,325,154.83Z"/> <path class="cls-1" d="M300,380H100a30,30,0,0,1-30-30V275a5,5,0,0,1,10,0v75a20,20,0,0,0,20,20H300a20,20,0,0,0,20-20V275a5,5,0,0,1,10,0v75A30,30,0,0,1,300,380Z"/> <path class="cls-1" d="M275,280H125a5,5,0,0,1,0-10H275a5,5,0,0,1,0,10Z"/> <path class="cls-1" d="M200,330H125a5,5,0,0,1,0-10h75a5,5,0,0,1,0,10Z"/> <path class="cls-1" d="M325,280H75a30,30,0,0,1-30-30V173.17a30,30,0,0,1,30-30h.2l250,1.66a30.09,30.09,0,0,1,29.81,30V250A30,30,0,0,1,325,280ZM75,153.17a20,20,0,0,0-20,20V250a20,20,0,0,0,20,20H325a20,20,0,0,0,20-20V174.83a20.06,20.06,0,0,0-19.88-20l-250-1.66Z"/> <path class="cls-1" d="M145,236h-9.61V182.68h21.84q9.34,0,13.85,4.71a16.37,16.37,0,0,1-.37,22.95,17.49,17.49,0,0,1-12.38,4.53H145Zm0-29.37h11.37q4.45,0,6.8-2.19a7.58,7.58,0,0,0,2.34-5.82,8,8,0,0,0-2.17-5.62q-2.17-2.34-7.83-2.34H145Z"/> <path class="cls-1" d="M183,236V182.68H202.7q10.9,0,17.5,7.71t6.6,19q0,11.33-6.8,18.95T200.55,236Zm9.88-7.85h8a14.36,14.36,0,0,0,10.94-4.84q4.49-4.84,4.49-14.41a21.91,21.91,0,0,0-3.93-13.22,12.22,12.22,0,0,0-10.37-5.41h-9.14Z"/> <path class="cls-1" d="M245.59,236H235.7V182.68h33.71v8.24H245.59v14.57h18.75v8H245.59Z"/> </g> </g>
</svg>